<svg width="32" height="32" viewBox="0 0 32 32" fill="none" xmlns="http://www.w3.org/2000/svg">
<path fill-rule="evenodd" clip-rule="evenodd" d="M0.166664 16C0.166664 7.25524 7.25525 0.166656 16 0.166656C24.7447 0.166656 31.8333 7.25524 31.8333 16C31.8333 24.7447 24.7447 31.8333 16 31.8333C7.25525 31.8333 0.166664 24.7447 0.166664 16ZM16 3.33332C12.6406 3.33332 9.41877 4.66784 7.04331 7.0433C4.66785 9.41876 3.33333 12.6406 3.33333 16C3.33333 19.3594 4.66785 22.5812 7.04331 24.9567C9.41877 27.3321 12.6406 28.6667 16 28.6667C19.3594 28.6667 22.5812 27.3321 24.9567 24.9567C27.3321 22.5812 28.6667 19.3594 28.6667 16C28.6667 12.6406 27.3321 9.41876 24.9567 7.0433C22.5812 4.66784 19.3594 3.33332 16 3.33332Z" fill="#4A4A4A"/>
<path fill-rule="evenodd" clip-rule="evenodd" d="M17.5833 8.08333C17.5833 7.66341 17.4165 7.26068 17.1196 6.96375C16.8227 6.66682 16.4199 6.5 16 6.5C15.5801 6.5 15.1773 6.66682 14.8804 6.96375C14.5835 7.26068 14.4167 7.66341 14.4167 8.08333V14.4167H8.08333C7.66341 14.4167 7.26068 14.5835 6.96375 14.8804C6.66682 15.1773 6.5 15.5801 6.5 16C6.5 16.4199 6.66682 16.8227 6.96375 17.1196C7.26068 17.4165 7.66341 17.5833 8.08333 17.5833H14.4167V23.9167C14.4167 24.3366 14.5835 24.7393 14.8804 25.0363C15.1773 25.3332 15.5801 25.5 16 25.5C16.4199 25.5 16.8227 25.3332 17.1196 25.0363C17.4165 24.7393 17.5833 24.3366 17.5833 23.9167V17.5833H23.9167C24.3366 17.5833 24.7393 17.4165 25.0363 17.1196C25.3332 16.8227 25.5 16.4199 25.5 16C25.5 15.5801 25.3332 15.1773 25.0363 14.8804C24.7393 14.5835 24.3366 14.4167 23.9167 14.4167H17.5833V8.08333Z" fill="#4A4A4A"/>
</svg>
