<svg width="28" height="28" viewBox="0 0 28 28" fill="none" xmlns="http://www.w3.org/2000/svg">
<g clip-path="url(#clip0_3_134)">
<path fill-rule="evenodd" clip-rule="evenodd" d="M16.66 2.33333C17.1497 2.33346 17.627 2.48766 18.0242 2.7741C18.4214 3.06055 18.7184 3.4647 18.8732 3.92933L19.5067 5.83333H23.3333C23.6428 5.83333 23.9395 5.95624 24.1583 6.17504C24.3771 6.39383 24.5 6.69058 24.5 7C24.5 7.30941 24.3771 7.60616 24.1583 7.82495C23.9395 8.04375 23.6428 8.16666 23.3333 8.16666L23.3298 8.2495L22.3183 22.4163C22.2552 23.299 21.86 24.1251 21.2124 24.7281C20.5647 25.3312 19.7126 25.6666 18.8277 25.6667H9.17233C8.28737 25.6666 7.43529 25.3312 6.78763 24.7281C6.13996 24.1251 5.74479 23.299 5.68167 22.4163L4.67017 8.24833C4.66806 8.22116 4.66689 8.19392 4.66667 8.16666C4.35725 8.16666 4.0605 8.04375 3.84171 7.82495C3.62292 7.60616 3.5 7.30941 3.5 7C3.5 6.69058 3.62292 6.39383 3.84171 6.17504C4.0605 5.95624 4.35725 5.83333 4.66667 5.83333H8.49333L9.12683 3.92933C9.28165 3.46451 9.57884 3.06022 9.97628 2.77376C10.3737 2.4873 10.8512 2.33321 11.3412 2.33333H16.66ZM10.5 11.6667C10.2142 11.6667 9.93844 11.7716 9.7249 11.9615C9.51136 12.1514 9.37493 12.413 9.3415 12.6968L9.33333 12.8333V19.8333C9.33366 20.1307 9.44753 20.4167 9.65166 20.6329C9.85579 20.8491 10.1348 20.9793 10.4316 20.9967C10.7285 21.0141 11.0208 20.9175 11.2488 20.7267C11.4768 20.5358 11.6234 20.2651 11.6585 19.9698L11.6667 19.8333V12.8333C11.6667 12.5239 11.5437 12.2272 11.325 12.0084C11.1062 11.7896 10.8094 11.6667 10.5 11.6667ZM17.5 11.6667C17.1906 11.6667 16.8938 11.7896 16.675 12.0084C16.4562 12.2272 16.3333 12.5239 16.3333 12.8333V19.8333C16.3333 20.1427 16.4562 20.4395 16.675 20.6583C16.8938 20.8771 17.1906 21 17.5 21C17.8094 21 18.1062 20.8771 18.325 20.6583C18.5437 20.4395 18.6667 20.1427 18.6667 19.8333V12.8333C18.6667 12.5239 18.5437 12.2272 18.325 12.0084C18.1062 11.7896 17.8094 11.6667 17.5 11.6667ZM16.66 4.66666H11.34L10.9515 5.83333H17.0485L16.66 4.66666Z" fill="#373737"/>
</g>
<defs>
<clipPath id="clip0_3_134">
<rect width="28" height="28" fill="white"/>
</clipPath>
</defs>
</svg>
