<svg width="28" height="28" viewBox="0 0 28 28" fill="none" xmlns="http://www.w3.org/2000/svg">
<path d="M14 25.6667C12.3861 25.6667 10.8694 25.3602 9.45 24.7473C8.03056 24.1344 6.79583 23.3034 5.74583 22.2542C4.69583 21.2042 3.86478 19.9694 3.25267 18.55C2.64055 17.1305 2.33411 15.6139 2.33333 14C2.33333 12.3861 2.63978 10.8694 3.25267 9.45C3.86555 8.03055 4.69661 6.79583 5.74583 5.74583C6.79583 4.69583 8.03056 3.86477 9.45 3.25266C10.8694 2.64055 12.3861 2.33411 14 2.33333C14.9333 2.33333 15.8422 2.44027 16.7265 2.65416C17.6108 2.86805 18.4617 3.17916 19.2792 3.58749C19.5708 3.74305 19.7606 3.97638 19.8485 4.28749C19.9364 4.59861 19.8827 4.89027 19.6875 5.1625C19.4931 5.43472 19.2352 5.60972 18.914 5.68749C18.5928 5.76527 18.277 5.72638 17.9667 5.57083C17.3444 5.27916 16.6977 5.05555 16.0265 4.89999C15.3553 4.74444 14.6798 4.66666 14 4.66666C11.4139 4.66666 9.21161 5.57588 7.39317 7.39433C5.57472 9.21277 4.66589 11.4147 4.66667 14C4.66667 16.5861 5.5755 18.7884 7.39317 20.6068C9.21083 22.4253 11.4131 23.3341 14 23.3333C16.5861 23.3333 18.7884 22.4245 20.6068 20.6068C22.4253 18.7892 23.3341 16.5869 23.3333 14C23.3333 13.8444 23.3283 13.6936 23.3182 13.5473C23.3081 13.4011 23.2937 13.2506 23.275 13.0958C23.2361 12.7653 23.2995 12.4495 23.4652 12.1485C23.6308 11.8475 23.8786 11.648 24.2083 11.55C24.5194 11.4528 24.8111 11.4819 25.0833 11.6375C25.3556 11.7931 25.5111 12.0264 25.55 12.3375C25.5889 12.6097 25.6181 12.8819 25.6375 13.1542C25.6569 13.4264 25.6667 13.7083 25.6667 14C25.6667 15.6139 25.3602 17.1305 24.7473 18.55C24.1344 19.9694 23.3034 21.2042 22.2542 22.2542C21.2042 23.3042 19.9694 24.1356 18.55 24.7485C17.1306 25.3614 15.6139 25.6674 14 25.6667ZM12.3667 16.1L23.2167 5.22083C23.4306 5.00694 23.6981 4.89494 24.0193 4.88483C24.3406 4.87472 24.6174 4.98672 24.85 5.22083C25.0639 5.43472 25.1708 5.70694 25.1708 6.03749C25.1708 6.36805 25.0639 6.64027 24.85 6.85416L13.1833 18.55C12.95 18.7833 12.6778 18.9 12.3667 18.9C12.0556 18.9 11.7833 18.7833 11.55 18.55L8.225 15.225C8.01111 15.0111 7.90417 14.7389 7.90417 14.4083C7.90417 14.0778 8.01111 13.8055 8.225 13.5917C8.43889 13.3778 8.71111 13.2708 9.04167 13.2708C9.37222 13.2708 9.64444 13.3778 9.85833 13.5917L12.3667 16.1Z" fill="#373737"/>
</svg>
