<svg width="28" height="28" viewBox="0 0 28 28" fill="none" xmlns="http://www.w3.org/2000/svg">
<path d="M7.58333 11.0833H16.3788C17.438 11.1013 18.4477 11.5347 19.1904 12.2901C19.933 13.0455 20.3492 14.0624 20.3492 15.1217C20.3492 16.1811 19.933 17.198 19.1904 17.9534C18.4477 18.7088 17.438 19.1422 16.3788 19.1602H11.0833M7.58333 11.0833L10.2083 8.66016M7.58333 11.0833L10.2083 13.5065" stroke="#373737" stroke-width="2" stroke-linecap="round" stroke-linejoin="round"/>
<path d="M25.6667 14C25.6667 19.4997 25.6667 22.2495 23.9575 23.9575C22.2507 25.6667 19.4997 25.6667 14 25.6667C8.50033 25.6667 5.7505 25.6667 4.04133 23.9575C2.33333 22.2507 2.33333 19.4997 2.33333 14C2.33333 8.50033 2.33333 5.7505 4.04133 4.04133C5.75167 2.33333 8.50033 2.33333 14 2.33333C19.4997 2.33333 22.2495 2.33333 23.9575 4.04133C25.0938 5.17766 25.4742 6.77483 25.6025 9.33333" stroke="#373737" stroke-width="2" stroke-linecap="round"/>
</svg>
